# xmcd
#
# Track frame offsets:
#        150
#        18108
#        38876
#
# Disc length: 1068 seconds
#
# Revision: 0
# Processed by: cddbd v1.5.1PL0 Copyright (c) Steve Scherf et al.
# Submitted via: ExactAudioCopy v0.95a5
#
DISCID=17042a03
DTITLE=Eric Clapton - Change The World
DYEAR=1900
DGENRE=Blues
TTITLE0=Change The World
TTITLE1=Tears In Heaven
TTITLE2=Wonderful Tonight
EXTD=
EXTT0=
EXTT1=
EXTT2=
PLAYORDER=
